<?xml version="1.0" encoding="utf-8"?>
<!-- Generator: Adobe Illustrator 25.0.0, SVG Export Plug-In . SVG Version: 6.00 Build 0)  -->
<svg version="1.1" id="Capa_1" xmlns="http://www.w3.org/2000/svg" xmlns:xlink="http://www.w3.org/1999/xlink" x="0px" y="0px"
	 viewBox="0 0 600 200" style="enable-background:new 0 0 600 200;" xml:space="preserve">
<style type="text/css">
	.st0{fill:#FFFFFF;}
</style>
<g>
	<g>
		<path class="st0" d="M127.05,49.71c9.44,33.84,22.06,66.74,37.63,98.23c0.68-0.68,1.37-1.37,2.05-2.05
			c-34.96-25.09-78.58-31.2-119.36-41.28c-11.81-2.92-23.53-6.21-34.97-10.36c-0.13,0.98-0.27,1.96-0.4,2.95
			c69.41,2.29,138.81,4.81,208.2,7.56c69.04,2.73,138.06,5.69,207.08,8.87c38.93,1.8,77.86,3.66,116.79,5.6c1.93,0.1,1.92-2.9,0-3
			c-69.36-3.45-138.73-6.68-208.11-9.68c-69.03-2.98-138.06-5.74-207.11-8.28C89.9,96.84,50.95,95.48,12,94.19
			c-1.78-0.06-1.92,2.39-0.4,2.95c39.85,14.49,82.95,17.93,122.24,34.13c11.06,4.56,21.64,10.23,31.37,17.21
			c1.32,0.95,2.65-0.84,2.05-2.05c-15.46-31.26-27.95-63.92-37.33-97.51C129.42,47.06,126.53,47.85,127.05,49.71L127.05,49.71z"/>
	</g>
</g>
<g>
	<g>
		<path class="st0" d="M220.74,42.12c-17.68-1.94-36,2.79-50.58,12.97c-1.77,1.24-3.5,2.56-5.15,3.95
			c-1.64,1.38-3.39,2.86-4.06,4.98c-1.22,3.89,2.18,6.63,5.46,7.76c1.99,0.68,4.13,0.87,6.22,1.09c2.49,0.26,4.98,0.41,7.48,0.46
			c4.92,0.11,9.85-0.13,14.75-0.58c19.92-1.85,39.5-7.2,59.6-7.12c18.97,0.08,36.59,6.74,54.29,12.81c8.7,2.99,17.5,5.82,26.56,7.48
			c4.43,0.81,8.92,1.36,13.43,1.5c4.07,0.13,8.56,0.26,12.37-1.4c1.7-0.74,3.09-1.88,4.08-3.45c1.04-1.64-1.56-3.14-2.59-1.51
			c-1.97,3.11-6.37,3.29-9.67,3.37c-4.39,0.11-8.79-0.17-13.13-0.8c-8.6-1.24-16.98-3.67-25.22-6.39
			c-16.68-5.51-33.16-12.37-50.79-14.15c-19.01-1.92-37.9,2.36-56.6,5.13c-9.41,1.39-18.92,2.41-28.44,2.07
			c-2.35-0.09-4.69-0.26-7.03-0.52c-1.83-0.21-3.7-0.45-5.39-1.23c-1.22-0.56-2.68-1.51-2.62-3.03c0.07-1.96,2.37-3.49,3.73-4.61
			c13.05-10.78,30.11-16.57,47.01-16.2c2.11,0.05,4.21,0.19,6.3,0.42C222.65,45.33,222.64,42.33,220.74,42.12L220.74,42.12z"/>
	</g>
</g>
<g>
	<g>
		<path class="st0" d="M573.97,118.48c0-0.18,0-0.36,0-0.55c0.01-0.21-0.04-0.4-0.13-0.58c-0.06-0.19-0.16-0.35-0.31-0.48
			c-0.14-0.15-0.3-0.25-0.48-0.31c-0.18-0.09-0.37-0.14-0.58-0.13c-0.13,0.02-0.27,0.04-0.4,0.05c-0.25,0.07-0.47,0.2-0.66,0.39
			c-0.08,0.1-0.16,0.2-0.23,0.3c-0.14,0.23-0.2,0.49-0.2,0.76c0,0.18,0,0.36,0,0.55c-0.01,0.21,0.04,0.4,0.13,0.58
			c0.06,0.19,0.16,0.35,0.31,0.48c0.14,0.15,0.3,0.25,0.48,0.31c0.18,0.09,0.37,0.14,0.58,0.13c0.13-0.02,0.27-0.04,0.4-0.05
			c0.25-0.07,0.47-0.2,0.66-0.39c0.08-0.1,0.16-0.2,0.23-0.3C573.9,119.01,573.97,118.75,573.97,118.48L573.97,118.48z"/>
	</g>
</g>
</svg>
